<?xml version="1.0" standalone="no"?>
<!DOCTYPE svg PUBLIC "-//W3C//DTD SVG 20010904//EN"
 "http://www.w3.org/TR/2001/REC-SVG-20010904/DTD/svg10.dtd">
<svg version="1.0" xmlns="http://www.w3.org/2000/svg"
 width="512.000000pt" height="512.000000pt" viewBox="0 0 512.000000 512.000000"
 preserveAspectRatio="xMidYMid meet">
<g transform="translate(0.000000,512.000000) scale(0.100000,-0.100000)"
 stroke="none">
<path d="M1830 4364 c-802 -112 -1403 -200 -1429 -210 -107 -41 -202 -162
-232 -298 -20 -86 -17 -300 4 -406 19 -89 77 -223 120 -275 l25 -30 -106 -32
c-115 -35 -135 -48 -134 -88 0 -37 35 -70 101 -95 79 -31 135 -92 161 -178 25
-79 36 -203 26 -293 l-8 -64 -131 -43 c-156 -50 -227 -90 -227 -127 0 -25 4
-27 102 -50 l27 -7 -38 -56 c-21 -32 -49 -84 -62 -117 -22 -55 -23 -74 -23
-245 0 -158 3 -196 22 -263 37 -135 103 -242 181 -292 34 -22 1903 -635 1936
-635 24 0 2787 671 2808 681 59 32 -28 92 -232 159 l-116 38 -7 74 c-8 93 7
234 31 299 31 81 61 112 153 157 94 46 118 74 102 120 -7 21 -21 31 -66 46
l-57 18 45 45 c90 91 148 256 160 458 10 168 -19 307 -82 400 -14 21 -24 39
-22 40 2 1 37 10 78 19 41 9 99 24 128 32 49 14 53 17 50 42 -4 36 -83 78
-240 129 l-117 38 -7 74 c-14 153 18 312 77 384 21 25 57 50 103 71 39 18 79
43 90 54 22 25 24 68 4 88 -21 21 -1731 534 -1776 533 -20 -1 -660 -88 -1422
-195z m-422 -709 c498 -163 907 -297 908 -298 5 -4 -18 -592 -22 -596 -2 -3
-412 110 -912 249 -731 204 -914 259 -942 280 -74 57 -114 184 -115 370 0 134
18 200 70 255 26 28 40 35 70 35 22 0 409 -121 943 -295z m3265 88 c-29 -91
-40 -248 -26 -360 l9 -72 -230 -56 c-127 -31 -633 -156 -1124 -279 l-893 -224
7 257 c4 141 10 276 13 301 l6 44 1125 232 c619 128 1128 233 1131 233 4 1 -4
-34 -18 -76z m46 -778 c63 -53 93 -204 73 -366 -18 -146 -66 -248 -132 -284
-29 -16 -1829 -520 -1834 -514 -5 5 -26 593 -22 597 2 1 408 135 902 297 556
181 915 294 941 294 31 1 49 -6 72 -24z m-3149 -340 c613 -126 1117 -230 1119
-232 6 -4 23 -584 17 -590 -3 -3 -508 119 -1121 271 l-1116 278 7 126 c7 138
-4 237 -36 329 -18 52 -18 55 -2 51 10 -3 520 -108 1132 -233z m-315 -889
l900 -294 3 -48 c4 -69 -13 -543 -20 -549 -3 -4 -417 109 -919 249 l-914 256
-42 46 c-61 65 -84 145 -90 304 -9 222 39 329 147 329 19 1 440 -132 935 -293z
m3280 147 c-4 -10 -16 -53 -27 -97 -17 -66 -19 -103 -17 -236 l4 -157 -1117
-278 c-615 -154 -1119 -277 -1122 -274 -6 7 15 583 22 590 4 4 110 28 235 53
167 34 240 45 271 41 34 -6 70 2 177 36 90 28 369 91 844 189 391 81 716 148
724 149 9 1 11 -5 6 -16z"/>
</g>
</svg>
