<svg xmlns="http://www.w3.org/2000/svg" width="22.84" height="22.84" viewBox="0 0 22.84 22.84">
  <path id="Setting-Icon-8nxvd" d="M64.113,10.92A3.286,3.286,0,0,1,65.9,8a11.655,11.655,0,0,0-1.329-2.859,3.276,3.276,0,0,1-4.361-4.044A11.586,11.586,0,0,0,57.244,0a3.289,3.289,0,0,1-3.033,2.018A3.286,3.286,0,0,1,51.287.229a11.625,11.625,0,0,0-2.859,1.329,3.276,3.276,0,0,1-4.044,4.361,11.586,11.586,0,0,0-1.093,2.969,3.287,3.287,0,0,1,.229,5.957A11.655,11.655,0,0,0,44.849,17.7a3.276,3.276,0,0,1,4.361,4.044,11.586,11.586,0,0,0,2.969,1.093,3.287,3.287,0,0,1,5.957-.229,11.655,11.655,0,0,0,2.859-1.329,3.276,3.276,0,0,1,4.044-4.361,11.586,11.586,0,0,0,1.093-2.969,3.289,3.289,0,0,1-2.018-3.033m-9.4,6.5a6,6,0,1,1,6-6,6,6,0,0,1-6,6" transform="translate(-43.291)"/>
</svg>
