<?xml version="1.0" standalone="no"?>
<!DOCTYPE svg PUBLIC "-//W3C//DTD SVG 20010904//EN"
 "http://www.w3.org/TR/2001/REC-SVG-20010904/DTD/svg10.dtd">
<svg version="1.0" xmlns="http://www.w3.org/2000/svg"
 width="512.000000pt" height="512.000000pt" viewBox="0 0 512.000000 512.000000"
 preserveAspectRatio="xMidYMid meet">
<g transform="translate(0.000000,512.000000) scale(0.100000,-0.100000)" stroke="none">
<path d="M1255 4254 c-333 -54 -593 -250 -811 -612 -175 -291 -307 -633 -379
-987 -43 -210 -57 -350 -62 -627 -12 -588 60 -928 227 -1070 115 -99 298 -127
432 -66 167 77 439 318 737 653 132 148 175 184 256 212 46 17 116 18 905 18
656 0 865 -3 896 -13 59 -17 142 -76 193 -136 295 -345 610 -634 788 -723 148
-74 329 -52 453 55 166 142 239 487 227 1076 -6 287 -20 420 -72 666 -89 419
-280 852 -500 1135 -296 380 -702 509 -1165 369 -110 -34 -268 -108 -373 -177
-167 -109 -214 -120 -477 -115 -229 4 -257 12 -403 106 -243 157 -461 230
-707 237 -74 2 -148 1 -165 -1z m2387 -590 c105 -35 184 -147 182 -259 -1 -74
-20 -121 -73 -178 -58 -63 -126 -90 -210 -85 -107 6 -192 62 -232 154 -49 110
-30 214 54 299 80 80 178 104 279 69z m-2142 -184 c25 -6 57 -15 73 -21 l27
-11 0 -174 0 -174 169 0 170 0 27 -55 c24 -49 26 -63 21 -128 -3 -39 -13 -91
-23 -114 l-19 -43 -177 0 -178 0 0 -170 c0 -196 5 -186 -109 -216 -75 -19
-149 -9 -207 27 l-34 21 0 169 0 169 -169 0 -169 0 -19 48 c-24 63 -24 181 0
245 l19 47 179 0 179 0 0 179 0 179 33 11 c74 23 137 26 207 11z m2836 -227
c109 -37 195 -171 180 -280 -13 -95 -72 -180 -154 -219 -48 -23 -141 -30 -198
-14 -57 16 -135 86 -165 147 -49 101 -19 236 68 313 77 67 172 86 269 53z
m-670 -363 c136 -59 197 -228 130 -363 -48 -99 -131 -150 -241 -151 -107 -1
-192 51 -240 144 -46 92 -43 176 9 262 71 119 214 164 342 108z"/>
</g>
</svg>
