<?xml version="1.0" standalone="no"?>
<!DOCTYPE svg PUBLIC "-//W3C//DTD SVG 20010904//EN"
 "http://www.w3.org/TR/2001/REC-SVG-20010904/DTD/svg10.dtd">
<svg version="1.0" xmlns="http://www.w3.org/2000/svg"
 width="512.000000pt" height="512.000000pt" viewBox="0 0 512.000000 512.000000"
 preserveAspectRatio="xMidYMid meet">
<g transform="translate(0.000000,512.000000) scale(0.100000,-0.100000)" stroke="none">
<path d="M4213 5100 c-137 -49 -242 -158 -288 -298 -13 -42 -16 -79 -14 -162
l4 -109 -252 -189 -252 -189 -63 30 c-54 26 -78 31 -164 35 -79 3 -113 1 -155
-13 -143 -46 -251 -152 -300 -292 -25 -74 -26 -207 0 -280 l17 -52 -300 -298
-301 -299 -50 17 c-66 24 -204 25 -271 2 -55 -19 -106 -46 -147 -80 l-28 -23
-220 110 -219 110 0 68 c0 182 -125 350 -307 413 -109 37 -277 21 -370 -37
-148 -93 -223 -225 -223 -394 0 -258 191 -450 450 -450 114 0 201 30 283 97
l28 23 220 -110 219 -110 0 -68 c0 -182 125 -350 307 -413 76 -26 209 -26 285
0 138 47 242 151 289 288 25 73 25 208 0 278 l-17 50 299 301 298 300 52 -17
c73 -26 206 -25 280 0 140 49 246 157 292 299 13 42 16 79 14 162 l-4 109 252
189 252 189 63 -30 c54 -26 78 -31 164 -35 79 -3 113 -1 155 13 198 64 319
229 319 435 0 201 -117 365 -307 431 -75 25 -216 25 -290 -1z"/>
<path d="M3976 3601 c-15 -10 -37 -32 -47 -47 -18 -28 -19 -79 -19 -1641 l0
-1613 -150 0 -150 0 0 1163 c0 1121 -1 1163 -19 1191 -10 15 -32 37 -47 47
-27 18 -53 19 -384 19 -331 0 -357 -1 -384 -19 -15 -10 -37 -32 -47 -47 -18
-28 -19 -70 -19 -1191 l0 -1163 -150 0 -150 0 0 563 c0 534 -1 563 -19 591
-10 15 -32 37 -47 47 -27 18 -53 19 -384 19 -331 0 -357 -1 -384 -19 -15 -10
-37 -32 -47 -47 -18 -28 -19 -57 -19 -591 l0 -563 -150 0 -150 0 0 863 c0 828
-1 863 -19 891 -10 15 -32 37 -47 47 -27 18 -53 19 -384 19 -331 0 -357 -1
-384 -19 -15 -10 -37 -32 -47 -47 -18 -28 -19 -63 -19 -891 l0 -863 -107 0
c-89 0 -113 -3 -137 -19 -46 -31 -66 -69 -66 -131 0 -62 20 -100 66 -131 28
-18 96 -19 2494 -19 2398 0 2466 1 2494 19 46 31 66 69 66 131 0 62 -20 100
-66 131 -24 16 -48 19 -136 19 l-108 0 0 1613 c0 1562 -1 1613 -19 1641 -10
15 -32 37 -47 47 -27 18 -53 19 -384 19 -331 0 -357 -1 -384 -19z"/>
</g>
</svg>
