<?xml version="1.0" standalone="no"?>
<!DOCTYPE svg PUBLIC "-//W3C//DTD SVG 20010904//EN"
 "http://www.w3.org/TR/2001/REC-SVG-20010904/DTD/svg10.dtd">
<svg version="1.0" xmlns="http://www.w3.org/2000/svg"
 width="512.000000pt" height="512.000000pt" viewBox="0 0 512.000000 512.000000"
 preserveAspectRatio="xMidYMid meet">
<g transform="translate(0.000000,512.000000) scale(0.100000,-0.100000)"
 stroke="none">
<path d="M213 4876 c-89 -28 -147 -81 -189 -171 l-24 -50 0 -2096 0 -2096 30
-61 c35 -68 82 -115 149 -146 l46 -21 2335 0 2335 0 46 21 c67 31 114 78 149
146 l30 61 0 2097 0 2097 -30 61 c-35 68 -82 115 -149 146 l-46 21 -2320 2
c-1889 1 -2328 -1 -2362 -11z m3412 -410 c49 -21 65 -59 65 -160 0 -47 -4 -96
-10 -110 -17 -44 -65 -66 -148 -66 -134 0 -172 38 -172 175 0 92 18 137 63
159 41 20 156 21 202 2z m530 0 c49 -21 65 -59 65 -161 0 -139 -34 -175 -165
-175 -131 0 -165 36 -165 175 0 100 14 134 62 158 42 21 156 22 203 3z m530
-2 c47 -22 65 -66 65 -159 0 -136 -38 -175 -170 -175 -128 0 -160 35 -160 175
0 100 15 140 63 160 44 20 161 19 202 -1z m65 -2269 l0 -1585 -2190 0 -2190 0
0 1585 0 1585 2190 0 2190 0 0 -1585z"/>
<path d="M2740 3207 c-19 -12 -42 -36 -51 -52 -22 -38 -560 -1706 -566 -1756
-7 -50 26 -116 72 -148 71 -48 182 -26 230 45 11 16 145 418 298 893 249 772
278 868 272 907 -7 48 -42 97 -86 119 -44 23 -130 19 -169 -8z"/>
<path d="M1925 2766 c-223 -97 -847 -395 -869 -415 -73 -66 -74 -184 -3 -249
30 -28 862 -418 910 -427 72 -14 162 38 182 104 19 64 1 145 -43 184 -11 10
-136 72 -278 138 -143 67 -260 122 -261 123 -2 2 116 58 261 125 308 143 327
158 327 259 1 59 -11 90 -47 124 -51 48 -118 61 -179 34z"/>
<path d="M3070 2769 c-34 -14 -80 -59 -92 -89 -13 -34 -12 -114 3 -142 25 -49
59 -70 315 -189 145 -67 263 -123 262 -125 -2 -1 -115 -55 -253 -119 -276
-128 -288 -135 -311 -170 -79 -121 24 -286 162 -260 47 8 863 389 903 421 79
63 82 185 5 255 -16 15 -220 115 -454 224 -436 203 -481 219 -540 194z"/>
</g>
</svg>
