<svg id="Layer_1" data-name="Layer 1" xmlns="http://www.w3.org/2000/svg" viewBox="0 0 250 270"><defs><style>.cls-1{fill:#b4dfe5;}.cls-2{fill:#303c6c;}</style></defs><path class="cls-1" d="M120.83,73.65c-17.18,5-40.41-2.84-56.7-2.49-15.06.33-30.49,5.42-40.92,16.28a51.91,51.91,0,0,0-11,18c-5.56,15-4.42,33.15,6,45.29,13,15.16,35.22,16.9,54.19,23.07a106.84,106.84,0,0,1,38.12,22c5.25,4.7,10.12,10,16.35,13.3,8.69,4.61,19.34,4.77,28.64,1.55S172.73,201,179,193.43c9.47-11.46,15.55-26,27.43-34.92,6.83-5.15,15.68-8.61,19.33-16.34a20.2,20.2,0,0,0,1.75-9.21c-.35-14-10.95-25.24-19.14-36.62A124.62,124.62,0,0,1,191.69,64C188,53.16,185.36,41.1,176.78,33.47c-13.85-12.31-24.21,7-30.19,16.9a69.56,69.56,0,0,1-15.94,18.25A28.19,28.19,0,0,1,120.83,73.65Z"/><path class="cls-2" d="M224.65,94.1c-3.62-2.21-7.09-4.46-8.43-8.34s.08-8.33,1.22-12.4c5.88-20.89-10.68-41.52-32.3-30.06-7.68,4.07-13.52,11.55-21.88,14-13.22,3.83-26.07-4.39-38.63-6.84C110.85,47.73,95.72,54.76,88.9,67c-2.18,3.92-3.57,8.27-6,12-5.76,9-18.51,12.33-28.72,12.69-4.13.15-8.32-.38-12.37.41-4.91.95-9.23,3.77-13.4,6.52-10.8,7.14-18.36,19-18.15,32.36.18,11.84,7.06,22.95,16.52,30.07s21.27,10.58,33,11.84c4.64.49,9.43.69,13.7,2.58,7.71,3.39,6.43,9,8.54,15.57a22.59,22.59,0,0,0,7.75,11.36c5.2,3.84,12,4.68,18.5,4.46s13-1.49,17.79-5.71c4.5-4,6.79-10.24,11.82-13.56,6-4,13.94-2.62,20.77-.42,12.16,3.93,24.29,10.2,37,8.64,14.25-1.75,26.31-14.63,27.12-29A14.61,14.61,0,0,0,221.4,159c-3.72-6.67-11.15-12.25-8-21.13,2.34-6.68,11.21-9.12,16.42-13,8-6,8.71-19.49,1.34-26.25A41,41,0,0,0,224.65,94.1Z"/><path class="cls-1" d="M97,49.64a4.86,4.86,0,0,0,1.43,1.46c1.92,1.17,4.44.23,6.28-1.06,4.29-3,6.17-11.52-1-12.42C97.76,36.88,94,45.07,97,49.64Z"/><path class="cls-1" d="M88.49,51.62c4.22-3.56.46-9.66-3.91-5.3C81.52,49.37,84.8,54.74,88.49,51.62Z"/><path class="cls-2" d="M191.17,220.68a6.35,6.35,0,0,0,5.75-2.67c3.2-4.72-2.4-11.21-7.56-9.06C183.64,211.33,185,220.11,191.17,220.68Z"/></svg>